<svg width="319" height="76" viewBox="0 0 319 76" fill="none" xmlns="http://www.w3.org/2000/svg">
  <g clip-path="url(#clip0_105_2)">
    <g mask="url(#mask0_105_2)">
      <path d="M40.7568 44.9412L22.8881 32.0103L20.0074 35.9713L37.8761 48.9023L40.7568 44.9412Z" fill="#E9E7EF"/>
      <path d="M18.8818 45.8164L26.8368 34.8777L22.866 32.0042L14.911 42.9428L18.8818 45.8164Z" fill="#E9E7EF"/>
    </g>
    <path
      d="M30.3301 52.8692C30.3301 63.2069 38.7311 71.5872 49.0943 71.5872C59.4574 71.5872 67.8584 63.2069 67.8584 52.8692C67.8584 42.5315 59.4574 34.1511 49.0943 34.1511C38.7311 34.1511 30.3301 42.5315 30.3301 52.8692Z"
      fill="#E9E7EF"/>
    <path
      d="M36.6564 52.8693C36.6564 59.7217 42.225 65.2767 49.0943 65.2767C55.9636 65.2767 61.5322 59.7217 61.5322 52.8693C61.5322 46.0169 55.9636 40.4619 49.0943 40.4619C42.225 40.4619 36.6564 46.0169 36.6564 52.8693Z"
      fill="#63469C"/>
    <path
      d="M77.0979 71.5951V7.51983H94.5998C100.937 7.51983 106.327 8.4947 110.769 10.4444C115.271 12.3942 118.884 14.9643 121.608 18.1547C124.332 21.3452 126.316 24.8902 127.561 28.7896C128.864 32.63 129.515 36.4704 129.515 40.3108C129.515 45.1556 128.656 49.4982 126.939 53.3385C125.28 57.1789 122.97 60.458 120.009 63.1758C117.048 65.8933 113.642 67.9909 109.792 69.4683C106.001 70.8864 101.974 71.5951 97.7096 71.5951H77.0979ZM85.7155 63.353H96.0214C99.5751 63.353 102.833 62.8213 105.794 61.7578C108.815 60.6943 111.42 59.1582 113.613 57.1494C115.863 55.1405 117.61 52.6886 118.854 49.7935C120.097 46.8394 120.72 43.5012 120.72 39.779C120.72 35.8204 120.068 32.3641 118.765 29.41C117.462 26.3968 115.685 23.8858 113.435 21.8769C111.184 19.8681 108.637 18.3615 105.794 17.3571C102.952 16.2936 99.9603 15.7619 96.8212 15.7619H85.7155V63.353ZM152.786 72.4813C149.35 72.4813 146.211 71.7427 143.368 70.2653C140.584 68.7888 138.364 66.632 136.705 63.7962C135.106 60.9011 134.306 57.3857 134.306 53.2499C134.306 49.1732 135.165 45.6577 136.883 42.7036C138.6 39.6904 140.88 37.3862 143.723 35.7909C146.626 34.1957 149.794 33.3981 153.229 33.3981C156.665 33.3981 159.567 34.1957 161.936 35.7909C164.305 37.3271 166.112 39.1587 167.356 41.2856L166.822 42.7036L167.622 34.9047H175.263V71.5951H167V62.0237L167.889 64.1507C167.652 64.7415 167.118 65.5098 166.289 66.4552C165.519 67.3414 164.453 68.2569 163.091 69.2023C161.788 70.1477 160.278 70.9448 158.56 71.5951C156.842 72.1862 154.918 72.4813 152.786 72.4813ZM155.006 65.6573C157.08 65.6573 158.945 65.273 160.603 64.5052C162.262 63.7371 163.624 62.6736 164.69 61.3147C165.815 59.8967 166.586 58.2128 167 56.2631V49.0846C166.527 47.3121 165.697 45.7759 164.512 44.4761C163.328 43.1172 161.906 42.0832 160.248 41.3743C158.59 40.6062 156.754 40.2221 154.74 40.2221C152.548 40.2221 150.535 40.7539 148.699 41.8174C146.863 42.8809 145.382 44.358 144.257 46.2486C143.19 48.1392 142.657 50.3548 142.657 52.8954C142.657 55.2587 143.22 57.4152 144.345 59.365C145.471 61.3147 146.981 62.8508 148.876 63.9734C150.771 65.096 152.815 65.6573 155.006 65.6573ZM192.493 34.9047L193.203 43.8557L192.848 42.4377C194.032 39.7199 195.957 37.5634 198.622 35.9682C201.288 34.3138 204.367 33.4867 207.862 33.4867C211.357 33.4867 214.199 34.5207 216.391 36.5886C218.641 38.5974 219.796 41.2265 219.856 44.4761V71.5951H211.505V47.4007C211.445 45.3919 210.853 43.7671 209.728 42.5264C208.662 41.2265 206.973 40.5766 204.664 40.5766C202.531 40.5766 200.606 41.1675 198.889 42.3491C197.171 43.5308 195.809 45.1556 194.802 47.2234C193.855 49.2913 193.381 51.6842 193.381 54.402V71.5951H185.119V34.9047H192.493ZM229.783 34.9047H238.045V71.5951H229.783V34.9047ZM229.161 21.6111C229.161 20.3112 229.664 19.2182 230.671 18.332C231.737 17.4457 232.892 17.0026 234.136 17.0026C235.38 17.0026 236.475 17.4457 237.423 18.332C238.429 19.2182 238.933 20.3112 238.933 21.6111C238.933 22.9699 238.429 24.0925 237.423 24.9788C236.475 25.8059 235.38 26.2195 234.136 26.2195C232.892 26.2195 231.737 25.7764 230.671 24.8902C229.664 24.0039 229.161 22.9109 229.161 21.6111ZM247.898 3H256.16V71.5951H247.898V3ZM262.815 52.8954C262.815 49.2323 263.674 45.9236 265.392 42.9695C267.169 40.0154 269.597 37.6816 272.677 35.9682C275.756 34.2548 279.251 33.3981 283.16 33.3981C287.188 33.3981 290.712 34.2548 293.732 35.9682C296.753 37.6816 299.093 40.0154 300.751 42.9695C302.409 45.9236 303.238 49.2323 303.238 52.8954C303.238 56.5585 302.409 59.8967 300.751 62.9099C299.093 65.8641 296.723 68.1977 293.643 69.911C290.623 71.6243 287.099 72.4813 283.071 72.4813C279.162 72.4813 275.668 71.6835 272.588 70.0886C269.567 68.4344 267.169 66.1593 265.392 63.2644C263.674 60.3103 262.815 56.854 262.815 52.8954ZM271.078 52.984C271.078 55.3474 271.611 57.5038 272.677 59.4536C273.743 61.3442 275.165 62.8508 276.941 63.9734C278.778 65.096 280.791 65.6573 282.982 65.6573C285.292 65.6573 287.336 65.096 289.113 63.9734C290.949 62.8508 292.37 61.3442 293.377 59.4536C294.384 57.5038 294.887 55.3474 294.887 52.984C294.887 50.6207 294.384 48.4937 293.377 46.6031C292.37 44.6533 290.949 43.1172 289.113 41.9946C287.336 40.813 285.292 40.2221 282.982 40.2221C280.732 40.2221 278.688 40.813 276.852 41.9946C275.075 43.1763 273.654 44.742 272.588 46.6917C271.581 48.5823 271.078 50.6798 271.078 52.984Z"
      fill="#E9E7EF"/>
  </g>
  <defs>
    <clipPath id="clip0_105_2">
      <rect width="319" height="75.6833" fill="white"/>
    </clipPath>
  </defs>
</svg>
